<svg version="1.1" xmlns="http://www.w3.org/2000/svg" viewBox="0 0 1163.3794897466291 769.911118552242" width="1163.3794897466291" height="769.911118552242">
  <!-- svg-source:excalidraw -->
  
  <defs>
    <style class="style-fonts">
      @font-face {
        font-family: "Virgil";
        src: url("https://excalidraw.com/Virgil.woff2");
      }
      @font-face {
        font-family: "Cascadia";
        src: url("https://excalidraw.com/Cascadia.woff2");
      }
      @font-face {
        font-family: "Assistant";
        src: url("https://excalidraw.com/Assistant-Regular.woff2");
      }
    </style>
    
  </defs>
  <rect x="0" y="0" width="1163.3794897466291" height="769.911118552242" fill="#ffffff"></rect><g stroke-linecap="round" transform="translate(626.571611676897 112.80678883940521) rotate(0 86.28561837332586 48.57140677315846)"><path d="M24.29 0 C70.79 0, 117.29 0, 148.29 0 M24.29 0 C58.78 0, 93.27 0, 148.29 0 M148.29 0 C164.48 0, 172.57 8.1, 172.57 24.29 M148.29 0 C164.48 0, 172.57 8.1, 172.57 24.29 M172.57 24.29 C172.57 37.18, 172.57 50.08, 172.57 72.86 M172.57 24.29 C172.57 41.36, 172.57 58.43, 172.57 72.86 M172.57 72.86 C172.57 89.05, 164.48 97.14, 148.29 97.14 M172.57 72.86 C172.57 89.05, 164.48 97.14, 148.29 97.14 M148.29 97.14 C105.54 97.14, 62.8 97.14, 24.29 97.14 M148.29 97.14 C101.11 97.14, 53.93 97.14, 24.29 97.14 M24.29 97.14 C8.1 97.14, 0 89.05, 0 72.86 M24.29 97.14 C8.1 97.14, 0 89.05, 0 72.86 M0 72.86 C0 59.98, 0 47.1, 0 24.29 M0 72.86 C0 59.15, 0 45.45, 0 24.29 M0 24.29 C0 8.1, 8.1 0, 24.29 0 M0 24.29 C0 8.1, 8.1 0, 24.29 0" stroke="#1e1e1e" stroke-width="2" fill="none"></path></g><g transform="translate(672.8572300502228 149.87819561256367) rotate(0 40 11.5)"><text x="40" y="18.400390625" font-family="Helvetica, Segoe UI Emoji" font-size="20px" fill="#1e1e1e" text-anchor="middle" style="white-space: pre;" direction="ltr" dominant-baseline="alphabetic">关注界面</text></g><g stroke-linecap="round" transform="translate(316.5716116768974 327.3779950684789) rotate(0 86.28561837332586 48.571406773158486)"><path d="M24.29 0 C54.19 0, 84.1 0, 148.29 0 M24.29 0 C63.46 0, 102.64 0, 148.29 0 M148.29 0 C164.48 0, 172.57 8.1, 172.57 24.29 M148.29 0 C164.48 0, 172.57 8.1, 172.57 24.29 M172.57 24.29 C172.57 39.46, 172.57 54.64, 172.57 72.86 M172.57 24.29 C172.57 34.55, 172.57 44.82, 172.57 72.86 M172.57 72.86 C172.57 89.05, 164.48 97.14, 148.29 97.14 M172.57 72.86 C172.57 89.05, 164.48 97.14, 148.29 97.14 M148.29 97.14 C116.11 97.14, 83.94 97.14, 24.29 97.14 M148.29 97.14 C118.43 97.14, 88.57 97.14, 24.29 97.14 M24.29 97.14 C8.1 97.14, 0 89.05, 0 72.86 M24.29 97.14 C8.1 97.14, 0 89.05, 0 72.86 M0 72.86 C0 54.37, 0 35.89, 0 24.29 M0 72.86 C0 60.99, 0 49.12, 0 24.29 M0 24.29 C0 8.1, 8.1 0, 24.29 0 M0 24.29 C0 8.1, 8.1 0, 24.29 0" stroke="#1e1e1e" stroke-width="2" fill="none"></path></g><g transform="translate(362.8572300502233 364.4494018416374) rotate(0 40 11.5)"><text x="40" y="18.400390625" font-family="Helvetica, Segoe UI Emoji" font-size="20px" fill="#1e1e1e" text-anchor="middle" style="white-space: pre;" direction="ltr" dominant-baseline="alphabetic">登录界面</text></g><g stroke-linecap="round" transform="translate(630.5716378348214 326.8067060059788) rotate(0 86.28561837332586 48.57140677315843)"><path d="M24.29 0 C56.15 0, 88.01 0, 148.29 0 M24.29 0 C52.01 0, 79.73 0, 148.29 0 M148.29 0 C164.48 0, 172.57 8.1, 172.57 24.29 M148.29 0 C164.48 0, 172.57 8.1, 172.57 24.29 M172.57 24.29 C172.57 42.2, 172.57 60.12, 172.57 72.86 M172.57 24.29 C172.57 40.11, 172.57 55.94, 172.57 72.86 M172.57 72.86 C172.57 89.05, 164.48 97.14, 148.29 97.14 M172.57 72.86 C172.57 89.05, 164.48 97.14, 148.29 97.14 M148.29 97.14 C102.59 97.14, 56.89 97.14, 24.29 97.14 M148.29 97.14 C101.44 97.14, 54.6 97.14, 24.29 97.14 M24.29 97.14 C8.1 97.14, 0 89.05, 0 72.86 M24.29 97.14 C8.1 97.14, 0 89.05, 0 72.86 M0 72.86 C0 60.78, 0 48.71, 0 24.29 M0 72.86 C0 56.89, 0 40.92, 0 24.29 M0 24.29 C0 8.1, 8.1 0, 24.29 0 M0 24.29 C0 8.1, 8.1 0, 24.29 0" stroke="#1e1e1e" stroke-width="2" fill="none"></path></g><g transform="translate(656.8572562081473 363.87811277913727) rotate(0 60 11.5)"><text x="60" y="18.400390625" font-family="Helvetica, Segoe UI Emoji" font-size="20px" fill="#1e1e1e" text-anchor="middle" style="white-space: pre;" direction="ltr" dominant-baseline="alphabetic">发表动态界面</text></g><g stroke-linecap="round" transform="translate(318.2856968470983 565.9495108329878) rotate(0 86.28561837332586 48.57140677315846)"><path d="M24.29 0 C54.3 0, 84.32 0, 148.29 0 M24.29 0 C66.01 0, 107.74 0, 148.29 0 M148.29 0 C164.48 0, 172.57 8.1, 172.57 24.29 M148.29 0 C164.48 0, 172.57 8.1, 172.57 24.29 M172.57 24.29 C172.57 36.21, 172.57 48.14, 172.57 72.86 M172.57 24.29 C172.57 34.23, 172.57 44.18, 172.57 72.86 M172.57 72.86 C172.57 89.05, 164.48 97.14, 148.29 97.14 M172.57 72.86 C172.57 89.05, 164.48 97.14, 148.29 97.14 M148.29 97.14 C103.99 97.14, 59.69 97.14, 24.29 97.14 M148.29 97.14 C101.23 97.14, 54.18 97.14, 24.29 97.14 M24.29 97.14 C8.1 97.14, 0 89.05, 0 72.86 M24.29 97.14 C8.1 97.14, 0 89.05, 0 72.86 M0 72.86 C0 63, 0 53.14, 0 24.29 M0 72.86 C0 55.58, 0 38.3, 0 24.29 M0 24.29 C0 8.1, 8.1 0, 24.29 0 M0 24.29 C0 8.1, 8.1 0, 24.29 0" stroke="#1e1e1e" stroke-width="2" fill="none"></path></g><g transform="translate(364.57131522042414 603.0209176061463) rotate(0 40 11.5)"><text x="40" y="18.400390625" font-family="Helvetica, Segoe UI Emoji" font-size="20px" fill="#1e1e1e" text-anchor="middle" style="white-space: pre;" direction="ltr" dominant-baseline="alphabetic">注册界面</text></g><g stroke-linecap="round" transform="translate(10 329.09238541446086) rotate(0 86.28561837332586 48.57140677315846)"><path d="M24.29 0 C72.8 0, 121.32 0, 148.29 0 M24.29 0 C56.05 0, 87.81 0, 148.29 0 M148.29 0 C164.48 0, 172.57 8.1, 172.57 24.29 M148.29 0 C164.48 0, 172.57 8.1, 172.57 24.29 M172.57 24.29 C172.57 41, 172.57 57.72, 172.57 72.86 M172.57 24.29 C172.57 39.74, 172.57 55.19, 172.57 72.86 M172.57 72.86 C172.57 89.05, 164.48 97.14, 148.29 97.14 M172.57 72.86 C172.57 89.05, 164.48 97.14, 148.29 97.14 M148.29 97.14 C120.5 97.14, 92.71 97.14, 24.29 97.14 M148.29 97.14 C111.45 97.14, 74.62 97.14, 24.29 97.14 M24.29 97.14 C8.1 97.14, 0 89.05, 0 72.86 M24.29 97.14 C8.1 97.14, 0 89.05, 0 72.86 M0 72.86 C0 61.37, 0 49.88, 0 24.29 M0 72.86 C0 55.36, 0 37.86, 0 24.29 M0 24.29 C0 8.1, 8.1 0, 24.29 0 M0 24.29 C0 8.1, 8.1 0, 24.29 0" stroke="#1e1e1e" stroke-width="2" fill="none"></path></g><g transform="translate(56.28561837332586 366.1637921876193) rotate(0 40 11.5)"><text x="40" y="18.400390625" font-family="Helvetica, Segoe UI Emoji" font-size="20px" fill="#1e1e1e" text-anchor="middle" style="white-space: pre;" direction="ltr" dominant-baseline="alphabetic">帮助界面</text></g><g stroke-linecap="round" transform="translate(980.8082529999774 328.2351466449297) rotate(0 86.28561837332586 48.57140677315846)"><path d="M24.29 0 C64.88 0, 105.48 0, 148.29 0 M24.29 0 C68.03 0, 111.77 0, 148.29 0 M148.29 0 C164.48 0, 172.57 8.1, 172.57 24.29 M148.29 0 C164.48 0, 172.57 8.1, 172.57 24.29 M172.57 24.29 C172.57 43.44, 172.57 62.59, 172.57 72.86 M172.57 24.29 C172.57 39.42, 172.57 54.55, 172.57 72.86 M172.57 72.86 C172.57 89.05, 164.48 97.14, 148.29 97.14 M172.57 72.86 C172.57 89.05, 164.48 97.14, 148.29 97.14 M148.29 97.14 C116.72 97.14, 85.16 97.14, 24.29 97.14 M148.29 97.14 C112.33 97.14, 76.37 97.14, 24.29 97.14 M24.29 97.14 C8.1 97.14, 0 89.05, 0 72.86 M24.29 97.14 C8.1 97.14, 0 89.05, 0 72.86 M0 72.86 C0 53.71, 0 34.57, 0 24.29 M0 72.86 C0 62.97, 0 53.08, 0 24.29 M0 24.29 C0 8.1, 8.1 0, 24.29 0 M0 24.29 C0 8.1, 8.1 0, 24.29 0" stroke="#1971c2" stroke-width="2" fill="none"></path></g><g transform="translate(1017.0938713733033 365.3065534180882) rotate(0 50 11.5)"><text x="50" y="18.400390625" font-family="Helvetica, Segoe UI Emoji" font-size="20px" fill="#1971c2" text-anchor="middle" style="white-space: pre;" direction="ltr" dominant-baseline="alphabetic">发表新动态</text></g><g stroke-linecap="round"><g transform="translate(314.3651144031951 359.9192174117684) rotate(0 -64.46823661007971 0.04151425463945202)"><path d="M0 0 C-21.49 0.01, -107.45 0.07, -128.94 0.08 M0 0 C-21.49 0.01, -107.45 0.07, -128.94 0.08" stroke="#e03131" stroke-width="2" fill="none"></path></g><g transform="translate(314.3651144031951 359.9192174117684) rotate(0 -64.46823661007971 0.04151425463945202)"><path d="M-105.45 -8.48 C-112.92 -5.76, -120.39 -3.04, -128.94 0.08 M-105.45 -8.48 C-114.41 -5.22, -123.37 -1.95, -128.94 0.08" stroke="#e03131" stroke-width="2" fill="none"></path></g><g transform="translate(314.3651144031951 359.9192174117684) rotate(0 -64.46823661007971 0.04151425463945202)"><path d="M-105.44 8.62 C-112.91 5.9, -120.38 3.19, -128.94 0.08 M-105.44 8.62 C-114.4 5.36, -123.37 2.11, -128.94 0.08" stroke="#e03131" stroke-width="2" fill="none"></path></g></g><mask></mask><g stroke-linecap="round"><g transform="translate(184.23265233489406 391.75773525759985) rotate(0 65.66947967100168 0.36173999243348476)"><path d="M0 0 C21.89 0.12, 109.45 0.6, 131.34 0.72 M0 0 C21.89 0.12, 109.45 0.6, 131.34 0.72" stroke="#e03131" stroke-width="2" fill="none"></path></g><g transform="translate(184.23265233489406 391.75773525759985) rotate(0 65.66947967100168 0.36173999243348476)"><path d="M107.8 9.14 C113.54 7.09, 119.27 5.04, 131.34 0.72 M107.8 9.14 C116.96 5.87, 126.12 2.59, 131.34 0.72" stroke="#e03131" stroke-width="2" fill="none"></path></g><g transform="translate(184.23265233489406 391.75773525759985) rotate(0 65.66947967100168 0.36173999243348476)"><path d="M107.89 -7.96 C113.61 -5.84, 119.32 -3.73, 131.34 0.72 M107.89 -7.96 C117.02 -4.58, 126.15 -1.2, 131.34 0.72" stroke="#e03131" stroke-width="2" fill="none"></path></g></g><mask></mask><g stroke-linecap="round"><g transform="translate(438.1166064509987 323.16734275655267) rotate(0 -31.899642787314065 -32.221899642078085)"><path d="M0 0 C-4.94 -11.06, -19.01 -66.7, -29.64 -66.38 C-40.28 -66.05, -58.11 -9.45, -63.8 1.93 M0 0 C-4.94 -11.06, -19.01 -66.7, -29.64 -66.38 C-40.28 -66.05, -58.11 -9.45, -63.8 1.93" stroke="#e03131" stroke-width="2" fill="none"></path></g><g transform="translate(438.1166064509987 323.16734275655267) rotate(0 -31.899642787314065 -32.221899642078085)"><path d="M-63.02 -23.05 C-63.26 -15.34, -63.5 -7.63, -63.8 1.93 M-63.02 -23.05 C-63.27 -15.23, -63.51 -7.4, -63.8 1.93" stroke="#e03131" stroke-width="2" fill="none"></path></g><g transform="translate(438.1166064509987 323.16734275655267) rotate(0 -31.899642787314065 -32.221899642078085)"><path d="M-47.14 -16.71 C-52.28 -10.96, -57.42 -5.2, -63.8 1.93 M-47.14 -16.71 C-52.36 -10.87, -57.58 -5.03, -63.8 1.93" stroke="#e03131" stroke-width="2" fill="none"></path></g></g><mask></mask><g stroke-linecap="round"><g transform="translate(436.82770194864156 664.5581483372285) rotate(0 -31.899642787314065 29.32186451177421)"><path d="M0 0 C-5.26 9.77, -20.94 58.32, -31.58 58.64 C-42.21 58.97, -58.43 11.39, -63.8 1.93 M0 0 C-5.26 9.77, -20.94 58.32, -31.58 58.64 C-42.21 58.97, -58.43 11.39, -63.8 1.93" stroke="#e03131" stroke-width="2" fill="none"></path></g><g transform="translate(436.82770194864156 664.5581483372285) rotate(0 -31.899642787314065 29.32186451177421)"><path d="M-46.45 19.93 C-51.21 15, -55.96 10.06, -63.8 1.93 M-46.45 19.93 C-52.94 13.2, -59.43 6.47, -63.8 1.93" stroke="#e03131" stroke-width="2" fill="none"></path></g><g transform="translate(436.82770194864156 664.5581483372285) rotate(0 -31.899642787314065 29.32186451177421)"><path d="M-62.08 26.87 C-62.55 20.04, -63.02 13.2, -63.8 1.93 M-62.08 26.87 C-62.72 17.55, -63.37 8.22, -63.8 1.93" stroke="#e03131" stroke-width="2" fill="none"></path></g></g><mask></mask><g stroke-linecap="round"><g transform="translate(747.9299400574356 110.6640865775093) rotate(0 -31.899642787314065 -32.22189964207803)"><path d="M0 0 C-4.94 -11.06, -19.01 -66.7, -29.64 -66.38 C-40.28 -66.05, -58.11 -9.45, -63.8 1.93 M0 0 C-4.94 -11.06, -19.01 -66.7, -29.64 -66.38 C-40.28 -66.05, -58.11 -9.45, -63.8 1.93" stroke="#e03131" stroke-width="2" fill="none"></path></g><g transform="translate(747.9299400574356 110.6640865775093) rotate(0 -31.899642787314065 -32.22189964207803)"><path d="M-63.02 -23.05 C-63.25 -15.78, -63.47 -8.5, -63.8 1.93 M-63.02 -23.05 C-63.19 -17.68, -63.36 -12.31, -63.8 1.93" stroke="#e03131" stroke-width="2" fill="none"></path></g><g transform="translate(747.9299400574356 110.6640865775093) rotate(0 -31.899642787314065 -32.22189964207803)"><path d="M-47.14 -16.71 C-51.99 -11.28, -56.85 -5.85, -63.8 1.93 M-47.14 -16.71 C-50.72 -12.7, -54.3 -8.69, -63.8 1.93" stroke="#e03131" stroke-width="2" fill="none"></path></g></g><mask></mask><g stroke-linecap="round"><g transform="translate(747.1243685976274 423.53851306453) rotate(0 -31.899642787314065 33.83296881167519)"><path d="M0 0 C-5.26 11.28, -20.94 67.34, -31.58 67.67 C-42.21 67.99, -58.43 12.89, -63.8 1.93 M0 0 C-5.26 11.28, -20.94 67.34, -31.58 67.67 C-42.21 67.99, -58.43 12.89, -63.8 1.93" stroke="#e03131" stroke-width="2" fill="none"></path></g><g transform="translate(747.1243685976274 423.53851306453) rotate(0 -31.899642787314065 33.83296881167519)"><path d="M-47.41 20.81 C-51.76 15.8, -56.11 10.79, -63.8 1.93 M-47.41 20.81 C-52.82 14.58, -58.23 8.34, -63.8 1.93" stroke="#e03131" stroke-width="2" fill="none"></path></g><g transform="translate(747.1243685976274 423.53851306453) rotate(0 -31.899642787314065 33.83296881167519)"><path d="M-63.37 26.93 C-63.49 20.3, -63.6 13.66, -63.8 1.93 M-63.37 26.93 C-63.51 18.68, -63.65 10.42, -63.8 1.93" stroke="#e03131" stroke-width="2" fill="none"></path></g></g><mask></mask><g stroke-linecap="round"><g transform="translate(388.51936970730253 427.68510628142144) rotate(0 -0.6689141604420001 67.70743958632005)"><path d="M0 0 C-0.22 22.57, -1.11 112.85, -1.34 135.41 M0 0 C-0.22 22.57, -1.11 112.85, -1.34 135.41" stroke="#e03131" stroke-width="2" fill="none"></path></g><g transform="translate(388.51936970730253 427.68510628142144) rotate(0 -0.6689141604420001 67.70743958632005)"><path d="M-9.66 111.84 C-6.49 120.82, -3.32 129.8, -1.34 135.41 M-9.66 111.84 C-7.46 118.06, -5.26 124.28, -1.34 135.41" stroke="#e03131" stroke-width="2" fill="none"></path></g><g transform="translate(388.51936970730253 427.68510628142144) rotate(0 -0.6689141604420001 67.70743958632005)"><path d="M7.44 112.01 C4.1 120.92, 0.75 129.84, -1.34 135.41 M7.44 112.01 C5.13 118.19, 2.81 124.36, -1.34 135.41" stroke="#e03131" stroke-width="2" fill="none"></path></g></g><mask></mask><g stroke-linecap="round"><g transform="translate(422.030124685058 564.4669683640996) rotate(0 0.6199411752357378 -68.26887561988957)"><path d="M0 0 C0.21 -22.76, 1.03 -113.78, 1.24 -136.54 M0 0 C0.21 -22.76, 1.03 -113.78, 1.24 -136.54" stroke="#e03131" stroke-width="2" fill="none"></path></g><g transform="translate(422.030124685058 564.4669683640996) rotate(0 0.6199411752357378 -68.26887561988957)"><path d="M9.58 -112.97 C6.54 -121.55, 3.51 -130.13, 1.24 -136.54 M9.58 -112.97 C7.03 -120.18, 4.48 -127.38, 1.24 -136.54" stroke="#e03131" stroke-width="2" fill="none"></path></g><g transform="translate(422.030124685058 564.4669683640996) rotate(0 0.6199411752357378 -68.26887561988957)"><path d="M-7.52 -113.12 C-4.33 -121.65, -1.14 -130.17, 1.24 -136.54 M-7.52 -113.12 C-4.84 -120.28, -2.16 -127.44, 1.24 -136.54" stroke="#e03131" stroke-width="2" fill="none"></path></g></g><mask></mask><g stroke-linecap="round"><g transform="translate(628.8945896038318 361.6302378276682) rotate(0 -68.33485178379243 0.04151425463945202)"><path d="M0 0 C-22.78 0.01, -113.89 0.07, -136.67 0.08 M0 0 C-22.78 0.01, -113.89 0.07, -136.67 0.08" stroke="#e03131" stroke-width="2" fill="none"></path></g><g transform="translate(628.8945896038318 361.6302378276682) rotate(0 -68.33485178379243 0.04151425463945202)"><path d="M-113.18 -8.48 C-122.15 -5.21, -131.11 -1.95, -136.67 0.08 M-113.18 -8.48 C-119.67 -6.12, -126.15 -3.75, -136.67 0.08" stroke="#e03131" stroke-width="2" fill="none"></path></g><g transform="translate(628.8945896038318 361.6302378276682) rotate(0 -68.33485178379243 0.04151425463945202)"><path d="M-113.17 8.62 C-122.14 5.36, -131.11 2.1, -136.67 0.08 M-113.17 8.62 C-119.66 6.26, -126.15 3.9, -136.67 0.08" stroke="#e03131" stroke-width="2" fill="none"></path></g></g><mask></mask><g stroke-linecap="round"><g transform="translate(490.14284842354914 393.53275526310813) rotate(0 68.46531449176462 0.6845138171678116)"><path d="M0 0 C22.82 0.23, 114.11 1.14, 136.93 1.37 M0 0 C22.82 0.23, 114.11 1.14, 136.93 1.37" stroke="#e03131" stroke-width="2" fill="none"></path></g><g transform="translate(490.14284842354914 393.53275526310813) rotate(0 68.46531449176462 0.6845138171678116)"><path d="M113.35 9.68 C118.72 7.79, 124.09 5.9, 136.93 1.37 M113.35 9.68 C121.3 6.88, 129.25 4.08, 136.93 1.37" stroke="#e03131" stroke-width="2" fill="none"></path></g><g transform="translate(490.14284842354914 393.53275526310813) rotate(0 68.46531449176462 0.6845138171678116)"><path d="M113.52 -7.42 C118.85 -5.42, 124.18 -3.42, 136.93 1.37 M113.52 -7.42 C121.41 -4.45, 129.3 -1.49, 136.93 1.37" stroke="#e03131" stroke-width="2" fill="none"></path></g></g><mask></mask><g stroke-linecap="round"><g transform="translate(806.2760708022017 396.9992829519149) rotate(0 86.66174886877195 1.2768320815848142)"><path d="M0 0 C28.89 0.43, 144.44 2.13, 173.32 2.55 M0 0 C28.89 0.43, 144.44 2.13, 173.32 2.55" stroke="#e03131" stroke-width="2" fill="none"></path></g><g transform="translate(806.2760708022017 396.9992829519149) rotate(0 86.66174886877195 1.2768320815848142)"><path d="M149.71 10.76 C155.56 8.72, 161.42 6.69, 173.32 2.55 M149.71 10.76 C157.89 7.91, 166.08 5.07, 173.32 2.55" stroke="#e03131" stroke-width="2" fill="none"></path></g><g transform="translate(806.2760708022017 396.9992829519149) rotate(0 86.66174886877195 1.2768320815848142)"><path d="M149.96 -6.34 C155.75 -4.14, 161.54 -1.93, 173.32 2.55 M149.96 -6.34 C158.06 -3.26, 166.16 -0.18, 173.32 2.55" stroke="#e03131" stroke-width="2" fill="none"></path></g></g><mask></mask><g stroke-linecap="round"><g transform="translate(979.6483079832242 360.17085230847715) rotate(0 -87.03287422954833 0.05305447735111102)"><path d="M0 0 C-29.01 0.02, -145.05 0.09, -174.07 0.11 M0 0 C-29.01 0.02, -145.05 0.09, -174.07 0.11" stroke="#e03131" stroke-width="2" fill="none"></path></g><g transform="translate(979.6483079832242 360.17085230847715) rotate(0 -87.03287422954833 0.05305447735111102)"><path d="M-150.58 -8.46 C-158.36 -5.62, -166.15 -2.78, -174.07 0.11 M-150.58 -8.46 C-157.17 -6.05, -163.77 -3.65, -174.07 0.11" stroke="#e03131" stroke-width="2" fill="none"></path></g><g transform="translate(979.6483079832242 360.17085230847715) rotate(0 -87.03287422954833 0.05305447735111102)"><path d="M-150.57 8.64 C-158.36 5.81, -166.15 2.98, -174.07 0.11 M-150.57 8.64 C-157.17 6.25, -163.77 3.85, -174.07 0.11" stroke="#e03131" stroke-width="2" fill="none"></path></g></g><mask></mask><g stroke-linecap="round"><g transform="translate(742.3156660189438 324.73620071874865) rotate(0 -0.3467249098623597 -57.313433183250595)"><path d="M0 0 C-0.12 -19.1, -0.58 -95.52, -0.69 -114.63 M0 0 C-0.12 -19.1, -0.58 -95.52, -0.69 -114.63" stroke="#e03131" stroke-width="2" fill="none"></path></g><g transform="translate(742.3156660189438 324.73620071874865) rotate(0 -0.3467249098623597 -57.313433183250595)"><path d="M8 -91.19 C4.77 -99.89, 1.54 -108.6, -0.69 -114.63 M8 -91.19 C5.6 -97.65, 3.21 -104.11, -0.69 -114.63" stroke="#e03131" stroke-width="2" fill="none"></path></g><g transform="translate(742.3156660189438 324.73620071874865) rotate(0 -0.3467249098623597 -57.313433183250595)"><path d="M-9.1 -91.08 C-5.98 -99.83, -2.86 -108.57, -0.69 -114.63 M-9.1 -91.08 C-6.78 -97.57, -4.47 -104.06, -0.69 -114.63" stroke="#e03131" stroke-width="2" fill="none"></path></g></g><mask></mask><g stroke-linecap="round"><g transform="translate(691.7272336767016 210.18751109328713) rotate(0 -0.6689141604420001 57.07421098360052)"><path d="M0 0 C-0.22 19.02, -1.11 95.12, -1.34 114.15 M0 0 C-0.22 19.02, -1.11 95.12, -1.34 114.15" stroke="#e03131" stroke-width="2" fill="none"></path></g><g transform="translate(691.7272336767016 210.18751109328713) rotate(0 -0.6689141604420001 57.07421098360052)"><path d="M-9.61 90.56 C-7.29 97.17, -4.97 103.79, -1.34 114.15 M-9.61 90.56 C-7.44 96.77, -5.26 102.97, -1.34 114.15" stroke="#e03131" stroke-width="2" fill="none"></path></g><g transform="translate(691.7272336767016 210.18751109328713) rotate(0 -0.6689141604420001 57.07421098360052)"><path d="M7.49 90.76 C5.01 97.32, 2.54 103.88, -1.34 114.15 M7.49 90.76 C5.17 96.91, 2.84 103.07, -1.34 114.15" stroke="#e03131" stroke-width="2" fill="none"></path></g></g><mask></mask><g transform="translate(209.49811566764106 323.19106832730813) rotate(0 40 11.5)"><text x="0" y="18.400390625" font-family="Helvetica, Segoe UI Emoji" font-size="20px" fill="#1e1e1e" text-anchor="start" style="white-space: pre;" direction="ltr" dominant-baseline="alphabetic">查看帮助</text></g><g transform="translate(229.86427452626617 402.82687653490973) rotate(0 20 11.5)"><text x="0" y="18.400390625" font-family="Helvetica, Segoe UI Emoji" font-size="20px" fill="#1e1e1e" text-anchor="start" style="white-space: pre;" direction="ltr" dominant-baseline="alphabetic">返回</text></g><g transform="translate(447.4299331949211 489.12789150795174) rotate(0 62.7783203125 11.5)"><text x="0" y="18.400390625" font-family="Helvetica, Segoe UI Emoji" font-size="20px" fill="#1e1e1e" text-anchor="start" style="white-space: pre;" direction="ltr" dominant-baseline="alphabetic">返回/注册成功</text></g><g transform="translate(522.6109827469473 323.2946532406511) rotate(0 40 11.5)"><text x="0" y="18.400390625" font-family="Helvetica, Segoe UI Emoji" font-size="20px" fill="#1e1e1e" text-anchor="start" style="white-space: pre;" direction="ltr" dominant-baseline="alphabetic">退出登录</text></g><g transform="translate(522.4380217905211 405.48613822817117) rotate(0 40 11.5)"><text x="0" y="18.400390625" font-family="Helvetica, Segoe UI Emoji" font-size="20px" fill="#1e1e1e" text-anchor="start" style="white-space: pre;" direction="ltr" dominant-baseline="alphabetic">登录成功</text></g><g transform="translate(326.38721514758515 486.95232308010793) rotate(0 20 11.5)"><text x="0" y="18.400390625" font-family="Helvetica, Segoe UI Emoji" font-size="20px" fill="#1e1e1e" text-anchor="start" style="white-space: pre;" direction="ltr" dominant-baseline="alphabetic">注册</text></g><g transform="translate(366.6932582050291 736.911118552242) rotate(0 40 11.5)"><text x="0" y="18.400390625" font-family="Helvetica, Segoe UI Emoji" font-size="20px" fill="#1e1e1e" text-anchor="start" style="white-space: pre;" direction="ltr" dominant-baseline="alphabetic">注册失败</text></g><g transform="translate(635.26600025291 250.04749147321309) rotate(0 20 11.5)"><text x="0" y="18.400390625" font-family="Helvetica, Segoe UI Emoji" font-size="20px" fill="#1e1e1e" text-anchor="start" style="white-space: pre;" direction="ltr" dominant-baseline="alphabetic">返回</text></g><g transform="translate(651.4626239844672 10) rotate(0 62.7783203125 11.5)"><text x="0" y="18.400390625" font-family="Helvetica, Segoe UI Emoji" font-size="20px" fill="#1e1e1e" text-anchor="start" style="white-space: pre;" direction="ltr" dominant-baseline="alphabetic">新增/删除关注</text></g><g transform="translate(654.3730849839413 506.2915329048931) rotate(0 62.7783203125 11.5)"><text x="0" y="18.400390625" font-family="Helvetica, Segoe UI Emoji" font-size="20px" fill="#1e1e1e" text-anchor="start" style="white-space: pre;" direction="ltr" dominant-baseline="alphabetic">刷新/删除动态</text></g><g transform="translate(808.5936992000273 319.4268038983852) rotate(0 82.77832031250006 11.5)"><text x="0" y="18.400390625" font-family="Helvetica, Segoe UI Emoji" font-size="20px" fill="#1e1e1e" text-anchor="start" style="white-space: pre;" direction="ltr" dominant-baseline="alphabetic">返回/确认发表动态</text></g><g transform="translate(756.131436957723 253.673549512588) rotate(0 60 11.5)"><text x="0" y="18.400390625" font-family="Helvetica, Segoe UI Emoji" font-size="20px" fill="#1e1e1e" text-anchor="start" style="white-space: pre;" direction="ltr" dominant-baseline="alphabetic">查看关注列表</text></g><g transform="translate(836.151710790041 414.9139333943999) rotate(0 50 11.5)"><text x="0" y="18.400390625" font-family="Helvetica, Segoe UI Emoji" font-size="20px" fill="#1e1e1e" text-anchor="start" style="white-space: pre;" direction="ltr" dominant-baseline="alphabetic">发表新动态</text></g></svg>